<svg id="finalwhite" xmlns="http://www.w3.org/2000/svg" viewBox="0 0 286.75 254.87"><path d="M286.08,193.09s-8.92-4.12-37.86-2.73-32.26,1.76-38.33,1.22C203.61,191,180,186,169.2,166.89L161,175.54s9.25,21.6,45.81,26,68.28-9.15,88.42,10.1Z" transform="translate(-140.58 -114.65)" style="fill:#DEDCD9"/><path d="M202,200.82s-16.8,10.81-39.72-2.79l-5.21,9.61s8.63,7.44,30.52,6.36a75.52,75.52,0,0,0,37.06-12.27Z" transform="translate(-140.58 -114.65)" style="fill:#DEDCD9"/><path d="M291.41,253.22s-49-11.87-50-38.21l-10,.93s-2.58,27.48,39.1,38.5l15,3.69Z" transform="translate(-140.58 -114.65)" style="fill:#DEDCD9"/><path d="M265.54,252.64s-23.44,9.1-39.77,17.23c-21.63,10.78-36,6.12-47.27-7.47l-9.12,6.48s5.38,10.15,20.19,14.06c7,1.85,17.94,3.54,27.89-.1,31.12-11.37,40.59-22.59,65.52-21.42l9.43-8.2Z" transform="translate(-140.58 -114.65)" style="fill:#DEDCD9"/><path d="M232.1,299.57,222,302.91c-5.9-16,5.22-24,5.22-24l21.9-10.08S227.45,280.72,232.1,299.57Z" transform="translate(-140.58 -114.65)" style="fill:#DEDCD9"/><path d="M213.25,287.3s-21.38,2.92-12.12,23.52C201.13,310.82,222.72,305.9,213.25,287.3Z" transform="translate(-140.58 -114.65)" style="fill:#ababab"/><path d="M245.67,191.13s-33-30-28.39-66.39l9.7,1.58s-2.8,26.46,16.86,47.79c15,16.25,20.64,16,20.64,16Z" transform="translate(-140.58 -114.65)" style="fill:#DEDCD9"/><path d="M230,171.68s-17.5,20.3-40.46-7.88l8.18-6s16.87,20.73,26.62,3.84Z" transform="translate(-140.58 -114.65)" style="fill:#DEDCD9"/><path d="M349,369.52s-17.79-52.06-22.93-109.37L301.71,369.52Z" transform="translate(-140.58 -114.65)" style="fill:#DEDCD9"/><path d="M318.27,244s26.52-14.75,28.3-43.45c1.21-19.53-5.17-32-5.17-32l11.11-12.43s13.69,38.87,1.24,63.37S323.82,254,323.82,254Z" transform="translate(-140.58 -114.65)" style="fill:#DEDCD9"/><path d="M375.13,245s32.19-10.67,28.45-51.59l-10.4,2.85s3.18,29.52-20.89,38.13Z" transform="translate(-140.58 -114.65)" style="fill:#DEDCD9"/><path d="M302.27,219.25s-11.17-34,18.62-55.67l6.26,9.63S302,194.94,311,218.9Z" transform="translate(-140.58 -114.65)" style="fill:#DEDCD9"/><path d="M249.09,252.58s-11.34-18.36-26.41-1.53C222.68,251.05,235.94,268.79,249.09,252.58Z" transform="translate(-140.58 -114.65)" style="fill:#ababab"/><path d="M328.65,202.19s-20.17,7.67-6.49,25.65C322.16,227.84,342.08,218.17,328.65,202.19Z" transform="translate(-140.58 -114.65)" style="fill:#ababab"/><path d="M303.75,147.82s-19.29,9.67-3.88,26.18C299.87,174,318.72,162.37,303.75,147.82Z" transform="translate(-140.58 -114.65)" style="fill:#ababab"/><path d="M380.51,202.34s-21.38,2.93-12.11,23.53C368.4,225.87,390,220.94,380.51,202.34Z" transform="translate(-140.58 -114.65)" style="fill:#ababab"/><path d="M427.34,225.83s-18-11.85-24.6,9.76C402.74,235.59,422.25,246.07,427.34,225.83Z" transform="translate(-140.58 -114.65)" style="fill:#ababab"/><path d="M256.41,158.39S246,177.28,268,182.17C268,182.17,277,161.92,256.41,158.39Z" transform="translate(-140.58 -114.65)" style="fill:#ababab"/><path d="M195.51,131.38s-7.4,20.27,15.14,21.71C210.65,153.09,216.39,131.7,195.51,131.38Z" transform="translate(-140.58 -114.65)" style="fill:#ababab"/><path d="M140.58,177.94s2.93,21.38,23.53,12.12C164.11,190.06,159.18,168.46,140.58,177.94Z" transform="translate(-140.58 -114.65)" style="fill:#ababab"/><path d="M361.6,272.92s-2.93-21.38-23.53-12.11C338.07,260.81,343,282.4,361.6,272.92Z" transform="translate(-140.58 -114.65)" style="fill:#ababab"/><path d="M270.35,369.52h18.08c43.09-38.71,38.85-83,38.05-104.2s-13.05-42.73-36.39-88.58c-18.9-37.13,4.35-54.22,4.35-54.22l-8-7.87c-25,32.35-16.76,45.09,4.83,89.39s25.27,45.05,23.67,87.73C313.25,337.55,270.35,369.52,270.35,369.52Z" transform="translate(-140.58 -114.65)" style="fill:#DEDCD9"/><path d="M296.53,316.54l-22.43.3V288.91s-12.18.27-12.18,0l38.75-32S306.75,281.51,296.53,316.54Z" transform="translate(-140.58 -114.65)" style="fill:#DEDCD9"/><path d="M290.7,329.58c-19.84-.5-85,.7-95.93,39.94h56.7S277.47,354.15,290.7,329.58Z" transform="translate(-140.58 -114.65)" style="fill:#DEDCD9"/><path d="M404.89,277.66c-24.55,0-45,6.91-60.92,21.44a387.6,387.6,0,0,0,20.79,70.42H422V279.25A93.09,93.09,0,0,0,404.89,277.66Z" transform="translate(-140.58 -114.65)" style="fill:#DEDCD9"/><path d="M356.42,233.88c-3.52,4.75-5.93,8.2-9.92,11.3,4.73-1.09,12.27-2.81,25.68-.67,21.46,3.42,29.79,14.9,29.79,14.9l9.84-7.67C391.25,232.72,364.76,233.35,356.42,233.88Z" transform="translate(-140.58 -114.65)" style="fill:#DEDCD9"/></svg>
