<svg width="82" height="45" viewBox="0 0 82 45" fill="none" xmlns="http://www.w3.org/2000/svg">
<path d="M22.6299 17.5306C22.2654 18.8119 21.9737 20.0098 21.7549 21.1244C21.5362 22.2285 21.4268 23.1869 21.4268 23.9994C21.4268 24.7077 21.5727 25.265 21.8643 25.6712C22.1664 26.0671 22.6612 26.265 23.3487 26.265C23.6091 26.265 23.9216 26.1921 24.2862 26.0462C24.6508 25.89 25.0674 25.6504 25.5362 25.3275C26.0049 25.0046 26.5258 24.5879 27.0987 24.0775C27.682 23.5671 28.3279 22.9577 29.0362 22.2494C29.0674 22.3119 29.1299 22.4577 29.2237 22.6869C29.307 22.8848 29.4216 23.1869 29.5674 23.5931C29.7237 23.9889 29.9372 24.5358 30.2081 25.2337C29.4268 26.0567 28.6404 26.7806 27.8487 27.4056C27.0674 28.0306 26.3018 28.5567 25.5518 28.9837C24.8122 29.4004 24.0987 29.7129 23.4112 29.9212C22.7341 30.14 22.1091 30.2494 21.5362 30.2494C20.8799 30.2494 20.2706 30.1244 19.7081 29.8744C19.1456 29.6348 18.656 29.2806 18.2393 28.8119C17.8331 28.3431 17.5102 27.7702 17.2706 27.0931C17.031 26.4056 16.9112 25.6244 16.9112 24.7494C16.9112 24.4473 16.9424 24.0671 17.0049 23.6087C17.0674 23.1504 17.156 22.6296 17.2706 22.0462C17.3956 21.4629 17.5414 20.8275 17.7081 20.14C17.8852 19.4421 18.0779 18.7077 18.2862 17.9369C16.8904 18.0827 15.5518 18.2181 14.2706 18.3431C12.9893 18.4681 11.7133 18.5879 10.4424 18.7025C10.1508 19.5775 9.85911 20.4369 9.56745 21.2806C9.2862 22.1139 9.01016 22.9004 8.73932 23.64C8.47891 24.3692 8.23411 25.041 8.00495 25.6556C7.7862 26.2598 7.5987 26.7754 7.44245 27.2025C6.93203 28.3067 6.43203 29.0879 5.94245 29.5462C5.46328 30.0046 5.03099 30.2337 4.64557 30.2337C4.39557 30.2337 4.15078 30.1921 3.9112 30.1087C3.67161 30.0254 3.45807 29.9056 3.27057 29.7494C3.08307 29.5931 2.93203 29.4056 2.81745 29.1869C2.71328 28.9681 2.6612 28.7233 2.6612 28.4525C2.6612 28.2858 2.68203 28.1244 2.7237 27.9681C3.1612 26.3744 3.63516 24.8379 4.14557 23.3587C4.66641 21.8692 5.19245 20.4212 5.7237 19.015C5.15078 19.015 4.5987 18.9733 4.06745 18.89C3.54661 18.7962 3.06224 18.64 2.61432 18.4212C2.16641 18.2025 1.76536 17.9004 1.4112 17.515C1.06745 17.1296 0.780989 16.64 0.551823 16.0462C0.510156 15.8587 0.473698 15.6921 0.442448 15.5462C0.421614 15.4004 0.411198 15.2546 0.411198 15.1087C0.411198 14.6504 0.572656 14.4212 0.895573 14.4212C1.09349 14.4212 1.31224 14.5306 1.55182 14.7494C1.79141 14.9577 2.0987 15.2962 2.4737 15.765C2.96328 15.7442 3.45286 15.7285 3.94245 15.7181C4.43203 15.7077 4.95807 15.7025 5.52057 15.7025H7.02057C7.39557 14.7337 7.74974 13.8014 8.08307 12.9056C8.42682 11.9994 8.74453 11.1139 9.0362 10.2494C9.21328 9.69728 9.35391 9.14519 9.45807 8.59311C9.56224 8.04103 9.61432 7.51498 9.61432 7.01498C9.61432 6.60873 9.57786 6.23373 9.50495 5.88998C9.43203 5.54623 9.31224 5.25457 9.14557 5.01498C8.97891 4.7754 8.76536 4.5879 8.50495 4.45248C8.24453 4.31707 7.92161 4.24936 7.5362 4.24936C7.2237 4.24936 6.85911 4.30144 6.44245 4.40561C6.0362 4.50978 5.58307 4.68165 5.08307 4.92123C4.58307 5.1504 4.0362 5.45769 3.44245 5.84311C2.85911 6.21811 2.2237 6.68686 1.5362 7.24936C1.29661 7.44728 1.07266 7.5879 0.864323 7.67123C0.666406 7.75457 0.484114 7.79623 0.317448 7.79623C0.234114 7.79623 0.171614 7.66082 0.129948 7.38998C0.088281 7.10873 0.0674477 6.76498 0.0674477 6.35873C0.0674477 5.81707 0.192448 5.30144 0.442448 4.81186C0.702864 4.32228 1.04661 3.87436 1.4737 3.46811C1.90078 3.05144 2.39036 2.67644 2.94245 2.34311C3.50495 1.99936 4.07786 1.7129 4.6612 1.48373C5.25495 1.24415 5.84349 1.06186 6.42682 0.936859C7.01016 0.811859 7.54661 0.749359 8.0362 0.749359C8.76536 0.749359 9.46328 0.848317 10.1299 1.04623C10.7966 1.24415 11.3799 1.56186 11.8799 1.99936C12.3904 2.43686 12.7914 3.00457 13.0831 3.70248C13.3852 4.4004 13.5362 5.24936 13.5362 6.24936C13.5362 6.71811 13.4789 7.29103 13.3643 7.96811C13.2602 8.64519 13.1143 9.38998 12.9268 10.2025C12.7393 11.0046 12.5154 11.8639 12.2549 12.7806C12.0049 13.6869 11.7341 14.6139 11.4424 15.5619C12.5154 15.4889 13.7237 15.416 15.0674 15.3431C16.4112 15.2702 17.7602 15.1973 19.1143 15.1244C19.6456 13.3848 20.2289 11.5879 20.8643 9.73373C21.5102 7.86915 22.1924 6.04103 22.9112 4.24936C23.1508 3.65561 23.4633 3.18165 23.8487 2.82748C24.2445 2.47332 24.7081 2.29623 25.2393 2.29623C25.4581 2.29623 25.6664 2.32748 25.8643 2.38998C26.0727 2.45248 26.2549 2.55144 26.4112 2.68686C26.5674 2.81186 26.6872 2.97853 26.7706 3.18686C26.8643 3.38478 26.9112 3.61915 26.9112 3.88998C26.9112 4.12957 26.8956 4.41082 26.8643 4.73373C26.8331 5.04623 26.7497 5.38478 26.6143 5.74936C26.3747 6.39519 26.1195 7.0879 25.8487 7.82748C25.5779 8.55665 25.3018 9.31186 25.0206 10.0931C24.7497 10.8639 24.4737 11.6556 24.1924 12.4681C23.9216 13.2806 23.6612 14.0879 23.4112 14.89C24.0674 14.8483 24.6404 14.8119 25.1299 14.7806C25.6195 14.7389 25.9893 14.7077 26.2393 14.6869C26.3539 14.6764 26.4581 14.6712 26.5518 14.6712C26.656 14.6608 26.7497 14.6556 26.8331 14.6556C27.1456 14.6556 27.3956 14.6869 27.5831 14.7494C27.781 14.8119 27.932 14.9004 28.0362 15.015C28.1508 15.1296 28.2289 15.265 28.2706 15.4212C28.3122 15.5775 28.3331 15.7546 28.3331 15.9525C28.3331 16.1712 28.2862 16.3535 28.1924 16.4994C28.0987 16.6452 27.9789 16.765 27.8331 16.8587C27.6977 16.9421 27.5518 17.0046 27.3956 17.0462C27.2393 17.0775 27.0935 17.0983 26.9581 17.1087C26.6664 17.14 26.4581 17.166 26.3331 17.1869C26.2081 17.1973 26.1195 17.2077 26.0674 17.2181C26.0154 17.2181 25.9789 17.2233 25.9581 17.2337C25.9477 17.2337 25.9112 17.2389 25.8487 17.2494C25.7862 17.2494 25.6768 17.2546 25.5206 17.265C25.3643 17.2754 25.1247 17.2962 24.8018 17.3275C24.4268 17.3692 24.057 17.4056 23.6924 17.4369C23.3383 17.4681 22.9841 17.4994 22.6299 17.5306Z" fill="#DEDCD9"/>
<path d="M34.8174 29.2494C33.8383 29.2494 32.9789 29.0723 32.2393 28.7181C31.5102 28.3639 30.9008 27.89 30.4112 27.2962C29.9216 26.6921 29.5518 25.9994 29.3018 25.2181C29.0622 24.4264 28.9424 23.5983 28.9424 22.7337C28.9424 22.1504 28.9997 21.5358 29.1143 20.89C29.2289 20.2337 29.4008 19.5931 29.6299 18.9681C29.8695 18.3431 30.1664 17.7494 30.5206 17.1869C30.8747 16.6139 31.2862 16.1139 31.7549 15.6869C32.2341 15.2494 32.7654 14.9056 33.3487 14.6556C33.9424 14.3952 34.5987 14.265 35.3174 14.265C35.9008 14.265 36.4424 14.3587 36.9424 14.5462C37.4424 14.7337 37.8747 14.9994 38.2393 15.3431C38.6143 15.6764 38.906 16.0827 39.1143 16.5619C39.3227 17.041 39.4268 17.5775 39.4268 18.1712C39.4268 18.8171 39.2654 19.4629 38.9424 20.1087C38.6299 20.7546 38.1924 21.3639 37.6299 21.9369C37.0674 22.5098 36.3956 23.0202 35.6143 23.4681C34.8435 23.916 34.0049 24.265 33.0987 24.515C33.2549 24.7962 33.406 25.0306 33.5518 25.2181C33.7081 25.4056 33.8643 25.5514 34.0206 25.6556C34.1768 25.7598 34.3383 25.8327 34.5049 25.8744C34.682 25.916 34.8695 25.9369 35.0674 25.9369C35.6924 25.9369 36.3487 25.8119 37.0362 25.5619C37.7341 25.3119 38.4112 24.9994 39.0674 24.6244C39.7237 24.2494 40.3435 23.8431 40.9268 23.4056C41.5102 22.9577 42.0049 22.5358 42.4112 22.14L44.4268 24.2337C43.5102 25.1817 42.5362 26.0202 41.5049 26.7494C41.057 27.0619 40.5727 27.3692 40.0518 27.6712C39.5414 27.9733 38.9997 28.2442 38.4268 28.4837C37.8643 28.7129 37.2758 28.9004 36.6612 29.0462C36.057 29.1817 35.4424 29.2494 34.8174 29.2494ZM32.7393 21.9056C33.1143 21.9056 33.5206 21.8119 33.9581 21.6244C34.406 21.4264 34.8174 21.1764 35.1924 20.8744C35.5779 20.5723 35.9008 20.2442 36.1612 19.89C36.4216 19.5358 36.5518 19.1921 36.5518 18.8587C36.5518 18.39 36.4633 18.0046 36.2862 17.7025C36.1195 17.4004 35.9112 17.2494 35.6612 17.2494C35.2133 17.2494 34.8279 17.3327 34.5049 17.4994C34.1924 17.666 33.9268 17.8848 33.7081 18.1556C33.4997 18.416 33.3279 18.7181 33.1924 19.0619C33.0674 19.3952 32.9685 19.7337 32.8956 20.0775C32.8331 20.4212 32.7914 20.7546 32.7706 21.0775C32.7497 21.4004 32.7393 21.6764 32.7393 21.9056Z" fill="#DEDCD9"/>
<path d="M52.5487 18.2494C52.6841 18.2494 52.8404 18.265 53.0174 18.2962C53.1945 18.3275 53.356 18.39 53.5018 18.4837C53.6477 18.5671 53.7727 18.6869 53.8768 18.8431C53.981 18.9889 54.0331 19.1869 54.0331 19.4369C54.0331 19.6452 54.007 19.8587 53.9549 20.0775C53.9133 20.2858 53.8195 20.4785 53.6737 20.6556C53.5383 20.8223 53.3404 20.9629 53.0799 21.0775C52.8195 21.1921 52.4706 21.2494 52.0331 21.2494H45.5487C45.2154 21.2494 44.9497 21.1921 44.7518 21.0775C44.5539 20.9525 44.3977 20.8067 44.2831 20.64C44.1789 20.4629 44.1112 20.2754 44.0799 20.0775C44.0487 19.8796 44.0331 19.7025 44.0331 19.5462C44.0331 19.4108 44.0487 19.2702 44.0799 19.1244C44.1112 18.9681 44.1789 18.8275 44.2831 18.7025C44.3872 18.5671 44.5383 18.4577 44.7362 18.3744C44.9445 18.291 45.2154 18.2494 45.5487 18.2494H52.5487Z" fill="#DEDCD9"/>
<path d="M50.7981 8.46811C50.7981 7.59311 50.9752 6.83269 51.3293 6.18686C51.6939 5.53061 52.1991 4.97332 52.8449 4.51498C53.5012 4.05665 54.2824 3.68165 55.1887 3.38998C56.1054 3.0879 57.1106 2.85353 58.2043 2.68686C59.2981 2.52019 60.4699 2.40561 61.7199 2.34311C62.9699 2.28061 64.2616 2.24936 65.5949 2.24936C67.4074 2.24936 69.3033 2.32228 71.2824 2.46811C73.272 2.61394 75.3449 2.87957 77.5012 3.26498C78.0012 3.36915 78.3502 3.55665 78.5481 3.82748C78.7564 4.09832 78.8606 4.4004 78.8606 4.73373C78.8606 4.94207 78.8137 5.14519 78.7199 5.34311C78.6262 5.54103 78.5012 5.72332 78.3449 5.88998C78.1887 6.05665 78.0064 6.19207 77.7981 6.29623C77.5897 6.38998 77.371 6.43686 77.1418 6.43686C76.3397 6.43686 75.5012 6.39519 74.6262 6.31186C73.7616 6.22853 72.8554 6.13478 71.9074 6.03061C70.9699 5.92644 70.0012 5.82228 69.0012 5.71811C68.0012 5.61394 66.9699 5.53582 65.9074 5.48373C65.7199 6.6504 65.4804 7.90561 65.1887 9.24936C64.897 10.5931 64.5741 11.9681 64.2199 13.3744C63.8762 14.7702 63.5116 16.166 63.1262 17.5619C62.7512 18.9473 62.3866 20.2754 62.0324 21.5462C61.6783 22.8067 61.3449 23.9733 61.0324 25.0462C60.7304 26.1192 60.4804 27.041 60.2824 27.8119C60.1991 28.166 60.0689 28.4942 59.8918 28.7962C59.7252 29.0879 59.5324 29.3431 59.3137 29.5619C59.1054 29.7806 58.8866 29.9473 58.6574 30.0619C58.4283 30.1869 58.2147 30.2494 58.0168 30.2494C57.4231 30.2494 56.9335 30.1087 56.5481 29.8275C56.1627 29.5462 55.9699 29.0931 55.9699 28.4681C55.9699 28.2702 56.0012 28.0514 56.0637 27.8119C56.1991 26.8639 56.3762 25.9317 56.5949 25.015C56.8241 24.0983 57.0897 23.1452 57.3918 22.1556C57.6939 21.1556 58.0377 20.0983 58.4231 18.9837C58.8085 17.8692 59.2356 16.6452 59.7043 15.3119C60.1731 13.9681 60.6783 12.4889 61.2199 10.8744C61.772 9.25978 62.3658 7.4629 63.0012 5.48373C62.4491 5.5254 61.8866 5.57228 61.3137 5.62436C60.7512 5.67644 60.1991 5.74936 59.6574 5.84311C59.1262 5.92644 58.6262 6.03582 58.1574 6.17123C57.6991 6.30665 57.2929 6.47853 56.9387 6.68686C56.5949 6.89519 56.3189 7.14519 56.1106 7.43686C55.9127 7.72853 55.8137 8.07228 55.8137 8.46811C55.8137 8.48894 55.7981 8.60353 55.7668 8.81186C55.746 9.02019 55.6574 9.24936 55.5012 9.49936C55.3449 9.73894 55.0949 9.9629 54.7512 10.1712C54.4179 10.3692 53.9387 10.4681 53.3137 10.4681C52.6887 10.4681 52.2043 10.3639 51.8606 10.1556C51.5168 9.94728 51.2668 9.71811 51.1106 9.46811C50.9231 9.17644 50.8189 8.84311 50.7981 8.46811Z" fill="#DEDCD9"/>
<path d="M81.2687 25.9212C80.8937 26.265 80.4249 26.6348 79.8624 27.0306C79.3104 27.416 78.7114 27.7754 78.0656 28.1087C77.4197 28.4317 76.7583 28.7025 76.0812 28.9212C75.4145 29.14 74.7791 29.2494 74.1749 29.2494C73.6333 29.2494 73.1749 29.1764 72.7999 29.0306C72.4354 28.8744 72.1385 28.6608 71.9093 28.39C71.6802 28.1192 71.5135 27.791 71.4093 27.4056C71.3156 27.0098 71.2687 26.5775 71.2687 26.1087C71.2687 25.4525 71.3416 24.6921 71.4874 23.8275C71.6437 22.9525 71.8312 22.0514 72.0499 21.1244C72.2687 20.1869 72.4979 19.2546 72.7374 18.3275C72.9874 17.4004 73.2062 16.5462 73.3937 15.765C73.4666 15.4942 73.6124 15.265 73.8312 15.0775C74.0499 14.8796 74.2947 14.7233 74.5656 14.6087C74.8468 14.4837 75.1333 14.3952 75.4249 14.3431C75.727 14.2806 75.9979 14.2494 76.2374 14.2494C76.6749 14.2494 76.9718 14.3327 77.1281 14.4994C77.2843 14.6556 77.3624 14.8692 77.3624 15.14C77.3624 15.3692 77.3104 15.7025 77.2062 16.14C77.102 16.5671 76.9718 17.0567 76.8156 17.6087C76.6593 18.1504 76.4927 18.7389 76.3156 19.3744C76.1385 19.9994 75.9718 20.6296 75.8156 21.265C75.6593 21.89 75.5291 22.5046 75.4249 23.1087C75.3208 23.7025 75.2687 24.2389 75.2687 24.7181C75.2687 25.1869 75.3208 25.5619 75.4249 25.8431C75.5291 26.1139 75.7427 26.2494 76.0656 26.2494C76.4406 26.2494 76.8572 26.1192 77.3156 25.8587C77.7739 25.5983 78.2374 25.2858 78.7062 24.9212C79.1749 24.5462 79.6333 24.1608 80.0812 23.765C80.5291 23.3692 80.9249 23.0306 81.2687 22.7494V25.9212ZM74.2843 9.85873C74.2843 9.61915 74.3364 9.34832 74.4406 9.04623C74.5447 8.74415 74.7114 8.4629 74.9406 8.20248C75.1802 7.93165 75.4927 7.70769 75.8781 7.53061C76.2739 7.34311 76.7635 7.24936 77.3468 7.24936C77.7114 7.24936 78.0552 7.29103 78.3781 7.37436C78.701 7.45769 78.9822 7.5879 79.2218 7.76498C79.4614 7.93165 79.6489 8.15561 79.7843 8.43686C79.9302 8.71811 80.0031 9.05144 80.0031 9.43686C80.0031 9.79103 79.9458 10.1348 79.8312 10.4681C79.7166 10.8014 79.5343 11.0983 79.2843 11.3587C79.0343 11.6192 78.7166 11.8327 78.3312 11.9994C77.9562 12.1556 77.5031 12.2337 76.9718 12.2337C76.0552 12.2337 75.3781 12.0202 74.9406 11.5931C74.5031 11.1556 74.2843 10.5775 74.2843 9.85873Z" fill="#DEDCD9"/>
<path d="M12.0061 44.2494V35.5221H13.063V39.4085H17.7164V35.5221H18.7732V44.2494H17.7164V40.346H13.063V44.2494H12.0061Z" fill="#DEDCD9"/>
<path d="M27.5776 41.5732V37.7039H28.5833V44.2494H27.5776V43.1414H27.5094C27.356 43.4738 27.1174 43.7565 26.7935 43.9894C26.4696 44.2195 26.0605 44.3346 25.5662 44.3346C25.1571 44.3346 24.7935 44.2451 24.4753 44.0661C24.1571 43.8843 23.9071 43.6116 23.7253 43.2479C23.5435 42.8815 23.4526 42.4198 23.4526 41.863V37.7039H24.4583V41.7948C24.4583 42.2721 24.5918 42.6528 24.8588 42.9369C25.1287 43.221 25.4725 43.363 25.8901 43.363C26.1401 43.363 26.3944 43.2991 26.6529 43.1712C26.9142 43.0434 27.133 42.8474 27.3091 42.5832C27.4881 42.319 27.5776 41.9823 27.5776 41.5732Z" fill="#DEDCD9"/>
<path d="M35.7843 44.3857C35.1934 44.3857 34.675 44.2451 34.2289 43.9638C33.7858 43.6826 33.4392 43.2891 33.1892 42.7835C32.942 42.2778 32.8184 41.6869 32.8184 41.0107C32.8184 40.3289 32.942 39.7337 33.1892 39.2252C33.4392 38.7167 33.7858 38.3218 34.2289 38.0406C34.675 37.7593 35.1934 37.6187 35.7843 37.6187C36.3752 37.6187 36.8923 37.7593 37.3355 38.0406C37.7815 38.3218 38.1281 38.7167 38.3752 39.2252C38.6252 39.7337 38.7502 40.3289 38.7502 41.0107C38.7502 41.6869 38.6252 42.2778 38.3752 42.7835C38.1281 43.2891 37.7815 43.6826 37.3355 43.9638C36.8923 44.2451 36.3752 44.3857 35.7843 44.3857ZM35.7843 43.4823C36.2332 43.4823 36.6025 43.3673 36.8923 43.1371C37.1821 42.907 37.3966 42.6045 37.5358 42.2295C37.675 41.8545 37.7446 41.4482 37.7446 41.0107C37.7446 40.5732 37.675 40.1656 37.5358 39.7877C37.3966 39.4099 37.1821 39.1045 36.8923 38.8715C36.6025 38.6386 36.2332 38.5221 35.7843 38.5221C35.3355 38.5221 34.9662 38.6386 34.6764 38.8715C34.3866 39.1045 34.1721 39.4099 34.0329 39.7877C33.8937 40.1656 33.8241 40.5732 33.8241 41.0107C33.8241 41.4482 33.8937 41.8545 34.0329 42.2295C34.1721 42.6045 34.3866 42.907 34.6764 43.1371C34.9662 43.3673 35.3355 43.4823 35.7843 43.4823Z" fill="#DEDCD9"/>
<path d="M43.9911 35.5221V44.2494H42.9854V35.5221H43.9911Z" fill="#DEDCD9"/>
<path d="M51.3796 37.7039V38.5562H47.9876V37.7039H51.3796ZM48.9762 36.1357H49.9819V42.3744C49.9819 42.6585 50.0231 42.8715 50.1055 43.0136C50.1907 43.1528 50.2987 43.2465 50.4294 43.2948C50.5629 43.3403 50.7035 43.363 50.8512 43.363C50.962 43.363 51.0529 43.3573 51.124 43.346C51.195 43.3317 51.2518 43.3204 51.2944 43.3119L51.499 44.2153C51.4308 44.2408 51.3356 44.2664 51.2135 44.292C51.0913 44.3204 50.9365 44.3346 50.749 44.3346C50.4649 44.3346 50.1865 44.2735 49.9137 44.1513C49.6439 44.0292 49.4194 43.8431 49.2404 43.5931C49.0643 43.3431 48.9762 43.0278 48.9762 42.6471V36.1357Z" fill="#DEDCD9"/>
<path d="M58.1812 44.3857C57.5903 44.3857 57.0718 44.2451 56.6258 43.9638C56.1826 43.6826 55.836 43.2891 55.586 42.7835C55.3389 42.2778 55.2153 41.6869 55.2153 41.0107C55.2153 40.3289 55.3389 39.7337 55.586 39.2252C55.836 38.7167 56.1826 38.3218 56.6258 38.0406C57.0718 37.7593 57.5903 37.6187 58.1812 37.6187C58.7721 37.6187 59.2892 37.7593 59.7323 38.0406C60.1784 38.3218 60.525 38.7167 60.7721 39.2252C61.0221 39.7337 61.1471 40.3289 61.1471 41.0107C61.1471 41.6869 61.0221 42.2778 60.7721 42.7835C60.525 43.2891 60.1784 43.6826 59.7323 43.9638C59.2892 44.2451 58.7721 44.3857 58.1812 44.3857ZM58.1812 43.4823C58.6301 43.4823 58.9994 43.3673 59.2892 43.1371C59.5789 42.907 59.7934 42.6045 59.9326 42.2295C60.0718 41.8545 60.1414 41.4482 60.1414 41.0107C60.1414 40.5732 60.0718 40.1656 59.9326 39.7877C59.7934 39.4099 59.5789 39.1045 59.2892 38.8715C58.9994 38.6386 58.6301 38.5221 58.1812 38.5221C57.7323 38.5221 57.363 38.6386 57.0733 38.8715C56.7835 39.1045 56.569 39.4099 56.4298 39.7877C56.2906 40.1656 56.221 40.5732 56.221 41.0107C56.221 41.4482 56.2906 41.8545 56.4298 42.2295C56.569 42.6045 56.7835 42.907 57.0733 43.1371C57.363 43.3673 57.7323 43.4823 58.1812 43.4823Z" fill="#DEDCD9"/>
</svg>
