<svg width="100%" height="100%" id="svg" viewBox="0 0 1440 490" xmlns="http://www.w3.org/2000/svg" class="transition duration-300 ease-in-out delay-150"><path d="M 0,500 C 0,500 0,125 0,125 C 121.59999999999997,136.86666666666667 243.19999999999993,148.73333333333332 427,142 C 610.8000000000001,135.26666666666668 856.8,109.93333333333334 1036,104 C 1215.2,98.06666666666666 1327.6,111.53333333333333 1440,125 C 1440,125 1440,500 1440,500 Z" stroke="none" stroke-width="0" fill="#0693e3" fill-opacity="0.4" class="transition-all duration-300 ease-in-out delay-150 path-0"></path><path d="M 0,500 C 0,500 0,250 0,250 C 133.46666666666664,227.86666666666667 266.9333333333333,205.73333333333332 447,213 C 627.0666666666667,220.26666666666668 853.7333333333333,256.93333333333334 1027,268 C 1200.2666666666667,279.06666666666666 1320.1333333333332,264.5333333333333 1440,250 C 1440,250 1440,500 1440,500 Z" stroke="none" stroke-width="0" fill="#0693e3" fill-opacity="0.53" class="transition-all duration-300 ease-in-out delay-150 path-1"></path><path d="M 0,500 C 0,500 0,375 0,375 C 188.2666666666667,376.3333333333333 376.5333333333334,377.66666666666663 552,372 C 727.4666666666666,366.33333333333337 890.1333333333332,353.6666666666667 1036,353 C 1181.8666666666668,352.3333333333333 1310.9333333333334,363.66666666666663 1440,375 C 1440,375 1440,500 1440,500 Z" stroke="none" stroke-width="0" fill="#0693e3" fill-opacity="1" class="transition-all duration-300 ease-in-out delay-150 path-2"></path></svg>
